<svg width="1734" height="482" viewBox="0 0 1734 482" fill="none" xmlns="http://www.w3.org/2000/svg">
<path d="M280.104 5C259.704 116.2 119.604 425.5 32.6043 425.5C-54.3959 425.5 69.7038 -5.30002 328.104 45.5C506.904 78.7 520.104 245.5 488.604 326C457.104 406.5 314.604 500 264.104 462.5C213.604 425 458.104 470.5 502.604 425C542.104 381 544.604 326 538.104 317.5C531.604 309 524.877 308 521.604 312C518.332 316 519.604 322 524.104 326C528.604 330 644.604 309.5 611.604 335.5C578.604 361.5 642.104 368.5 654.104 368.5C666.104 368.5 762.604 368.5 762.104 349C761.604 329.5 740.104 327.5 716.604 326C705.15 325.268 675.256 326.334 656.104 342.5C635.962 359.502 636.104 386.5 637.604 408C639.104 429.5 651.604 460 693.604 460C735.604 460 868.104 333 864.604 310.5C861.104 288 840.604 287 834.604 306.5C828.604 326 839.104 348.5 855.104 365.5C871.104 382.5 901.104 402.5 901.104 433.5C901.104 464.5 816.604 492.5 818.104 464.5C819.604 436.5 972.604 334.999 967.604 310.5C962.604 286 943.604 287 937.604 306.5C931.604 326 942.104 348.5 958.104 365.5C968.732 376.792 985.537 389.407 995.623 405.691M1071.5 326C1073.5 353.5 1038.43 378.924 995.623 405.691M995.623 405.691C1000.72 413.922 1004.1 423.091 1004.1 433.5C1004.1 464.5 919.604 492.5 921.104 464.5C921.808 451.352 957.734 429.385 995.623 405.691Z" stroke="#DC2626" stroke-width="10" stroke-linecap="round" stroke-linejoin="round"/>
<path d="M1133.83 479.58C1118.8 479.58 1105.67 476.716 1094.45 470.988C1083.48 465.021 1075 456.549 1069.04 445.57C1063.07 434.591 1060.09 421.584 1060.09 406.548V348.552C1060.09 333.516 1063.07 320.628 1069.04 309.888C1075 298.909 1083.48 290.437 1094.45 284.47C1105.67 278.503 1118.8 275.52 1133.83 275.52C1155.79 275.52 1173.33 281.725 1186.46 294.136C1199.83 306.308 1206.63 322.776 1206.87 343.54H1183.24C1183 328.743 1178.46 317.287 1169.63 309.172C1161.04 301.057 1149.11 297 1133.83 297C1118.32 297 1106.03 301.535 1096.96 310.604C1088.13 319.435 1083.71 332.084 1083.71 348.552V406.548C1083.71 422.777 1088.13 435.427 1096.96 444.496C1106.03 453.565 1118.32 458.1 1133.83 458.1C1149.11 458.1 1161.04 454.043 1169.63 445.928C1178.46 437.575 1183 426.119 1183.24 411.56H1206.87C1206.63 432.324 1199.83 448.911 1186.46 461.322C1173.33 473.494 1155.79 479.58 1133.83 479.58ZM1297.3 479.222C1282.5 479.222 1269.61 476.358 1258.64 470.63C1247.9 464.663 1239.54 456.191 1233.58 445.212C1227.61 434.233 1224.63 421.226 1224.63 406.19V348.91C1224.63 333.874 1227.61 320.986 1233.58 310.246C1239.54 299.267 1247.9 290.795 1258.64 284.828C1269.61 278.861 1282.5 275.878 1297.3 275.878C1312.1 275.878 1324.87 278.861 1335.61 284.828C1346.58 290.795 1355.06 299.267 1361.02 310.246C1366.99 320.986 1369.97 333.755 1369.97 348.552V406.19C1369.97 421.226 1366.99 434.233 1361.02 445.212C1355.06 456.191 1346.58 464.663 1335.61 470.63C1324.87 476.358 1312.1 479.222 1297.3 479.222ZM1297.3 458.458C1312.81 458.458 1324.87 453.923 1333.46 444.854C1342.05 435.785 1346.35 422.897 1346.35 406.19V348.91C1346.35 332.203 1342.05 319.315 1333.46 310.246C1324.87 301.177 1312.81 296.642 1297.3 296.642C1282.03 296.642 1269.97 301.177 1261.14 310.246C1252.55 319.315 1248.25 332.203 1248.25 348.91V406.19C1248.25 422.897 1252.55 435.785 1261.14 444.854C1269.73 453.923 1281.79 458.458 1297.3 458.458ZM1454.32 479.58C1434.75 479.58 1419 473.136 1407.07 460.248C1395.13 447.121 1389.17 429.579 1389.17 407.622V347.836C1389.17 325.879 1395.13 308.337 1407.07 295.21C1419 282.083 1434.75 275.52 1454.32 275.52C1471.27 275.52 1484.87 280.293 1495.13 289.84C1505.64 299.148 1510.89 311.559 1510.89 327.072L1502.29 310.246H1509.1L1508.74 269.792V214.66H1532.37V476H1508.74V444.854H1500.15L1510.89 428.028C1510.89 443.78 1505.64 456.31 1495.13 465.618C1484.87 474.926 1471.27 479.58 1454.32 479.58ZM1460.77 459.174C1476.04 459.174 1487.85 454.52 1496.21 445.212C1504.56 435.904 1508.74 423.135 1508.74 406.906V348.552C1508.74 332.084 1504.56 319.196 1496.21 309.888C1487.85 300.58 1476.04 295.926 1460.77 295.926C1445.73 295.926 1433.92 300.58 1425.32 309.888C1416.97 318.957 1412.79 331.845 1412.79 348.552V406.906C1412.79 423.374 1416.97 436.262 1425.32 445.57C1433.92 454.639 1445.73 459.174 1460.77 459.174ZM1626.74 479.58C1611.7 479.58 1598.69 476.597 1587.72 470.63C1576.74 464.663 1568.26 456.191 1562.3 445.212C1556.57 434.233 1553.71 421.345 1553.71 406.548V348.552C1553.71 333.755 1556.57 320.986 1562.3 310.246C1568.26 299.267 1576.74 290.795 1587.72 284.828C1598.69 278.623 1611.7 275.52 1626.74 275.52C1641.54 275.52 1654.3 278.623 1665.04 284.828C1676.02 290.795 1684.38 299.267 1690.1 310.246C1696.07 320.986 1699.05 333.755 1699.05 348.552V382.92H1576.98V406.548C1576.98 423.016 1581.27 435.904 1589.86 445.212C1598.46 454.52 1610.75 459.174 1626.74 459.174C1639.63 459.174 1650.13 456.429 1658.24 450.94C1666.6 445.212 1672.2 437.217 1675.07 426.954H1698.7C1695.59 443.183 1687.6 456.071 1674.71 465.618C1662.06 474.926 1646.07 479.58 1626.74 479.58ZM1675.78 366.81V348.552C1675.78 332.084 1671.49 319.196 1662.9 309.888C1654.54 300.341 1642.49 295.568 1626.74 295.568C1610.75 295.568 1598.46 300.222 1589.86 309.53C1581.27 318.838 1576.98 331.845 1576.98 348.552V363.946H1679.01L1675.78 366.81Z" fill="#DC2626"/>
</svg>
